<mxfile host="app.diagrams.net" modified="2023-04-15T19:29:02.072Z" agent="Mozilla/5.0 (Windows NT 10.0; Win64; x64) AppleWebKit/537.36 (KHTML, like Gecko) Chrome/112.0.0.0 Safari/537.36" etag="QKoiyuEFOFpJM1JgO6Ey" version="21.1.8" type="device">
  <diagram name="Page-1" id="e7e014a7-5840-1c2e-5031-d8a46d1fe8dd">
    <mxGraphModel dx="989" dy="556" grid="1" gridSize="10" guides="1" tooltips="1" connect="1" arrows="1" fold="1" page="1" pageScale="1" pageWidth="1169" pageHeight="826" background="none" math="0" shadow="0">
      <root>
        <mxCell id="0" />
        <mxCell id="1" parent="0" />
        <mxCell id="O0I8Ynf6DNQn3oAHetl9-41" value="AgenteReserva" style="shape=umlActor;verticalLabelPosition=bottom;verticalAlign=top;html=1;" vertex="1" parent="1">
          <mxGeometry x="40" y="79.5" width="30" height="60" as="geometry" />
        </mxCell>
        <mxCell id="O0I8Ynf6DNQn3oAHetl9-42" value="1. Administrar Reserva" style="ellipse;whiteSpace=wrap;html=1;" vertex="1" parent="1">
          <mxGeometry x="200" y="94" width="140" height="70" as="geometry" />
        </mxCell>
        <mxCell id="O0I8Ynf6DNQn3oAHetl9-43" value="" style="endArrow=none;html=1;rounded=0;entryX=0;entryY=0.5;entryDx=0;entryDy=0;" edge="1" parent="1" source="O0I8Ynf6DNQn3oAHetl9-41" target="O0I8Ynf6DNQn3oAHetl9-42">
          <mxGeometry width="50" height="50" relative="1" as="geometry">
            <mxPoint x="310" y="189.5" as="sourcePoint" />
            <mxPoint x="360" y="139.5" as="targetPoint" />
          </mxGeometry>
        </mxCell>
        <mxCell id="O0I8Ynf6DNQn3oAHetl9-44" value="Recepcionista" style="shape=umlActor;verticalLabelPosition=bottom;verticalAlign=top;html=1;" vertex="1" parent="1">
          <mxGeometry x="40" y="174.5" width="30" height="60" as="geometry" />
        </mxCell>
        <mxCell id="O0I8Ynf6DNQn3oAHetl9-45" value="2. Check-in Cliente" style="ellipse;whiteSpace=wrap;html=1;" vertex="1" parent="1">
          <mxGeometry x="200" y="189" width="140" height="70" as="geometry" />
        </mxCell>
        <mxCell id="O0I8Ynf6DNQn3oAHetl9-46" value="" style="endArrow=none;html=1;rounded=0;entryX=0;entryY=0.5;entryDx=0;entryDy=0;" edge="1" source="O0I8Ynf6DNQn3oAHetl9-44" target="O0I8Ynf6DNQn3oAHetl9-45" parent="1">
          <mxGeometry width="50" height="50" relative="1" as="geometry">
            <mxPoint x="310" y="284.5" as="sourcePoint" />
            <mxPoint x="360" y="234.5" as="targetPoint" />
          </mxGeometry>
        </mxCell>
        <mxCell id="O0I8Ynf6DNQn3oAHetl9-47" value="Sistema de Reserva de Hotel" style="shape=umlFrame;whiteSpace=wrap;html=1;pointerEvents=0;width=190;height=30;" vertex="1" parent="1">
          <mxGeometry x="160" y="39.5" width="220" height="550" as="geometry" />
        </mxCell>
        <mxCell id="O0I8Ynf6DNQn3oAHetl9-48" value="Cliente" style="shape=umlActor;verticalLabelPosition=bottom;verticalAlign=top;html=1;" vertex="1" parent="1">
          <mxGeometry x="50" y="329.5" width="30" height="60" as="geometry" />
        </mxCell>
        <mxCell id="O0I8Ynf6DNQn3oAHetl9-49" value="4. Administrar Reserva Online" style="ellipse;whiteSpace=wrap;html=1;" vertex="1" parent="1">
          <mxGeometry x="210" y="349" width="140" height="70" as="geometry" />
        </mxCell>
        <mxCell id="O0I8Ynf6DNQn3oAHetl9-50" value="" style="endArrow=none;html=1;rounded=0;entryX=0;entryY=0.5;entryDx=0;entryDy=0;" edge="1" source="O0I8Ynf6DNQn3oAHetl9-48" parent="1">
          <mxGeometry width="50" height="50" relative="1" as="geometry">
            <mxPoint x="320" y="439.5" as="sourcePoint" />
            <mxPoint x="259.99999999999886" y="359.5" as="targetPoint" />
          </mxGeometry>
        </mxCell>
        <mxCell id="O0I8Ynf6DNQn3oAHetl9-53" value="" style="endArrow=none;html=1;rounded=0;entryX=0;entryY=0.5;entryDx=0;entryDy=0;" edge="1" target="O0I8Ynf6DNQn3oAHetl9-54" parent="1">
          <mxGeometry width="50" height="50" relative="1" as="geometry">
            <mxPoint x="80" y="364.5" as="sourcePoint" />
            <mxPoint x="380" y="399.5" as="targetPoint" />
          </mxGeometry>
        </mxCell>
        <mxCell id="O0I8Ynf6DNQn3oAHetl9-54" value="5. Ver propiedades Online" style="ellipse;whiteSpace=wrap;html=1;" vertex="1" parent="1">
          <mxGeometry x="210" y="424" width="140" height="70" as="geometry" />
        </mxCell>
        <mxCell id="O0I8Ynf6DNQn3oAHetl9-55" value="" style="endArrow=none;html=1;rounded=0;entryX=0;entryY=0.5;entryDx=0;entryDy=0;" edge="1" target="O0I8Ynf6DNQn3oAHetl9-56" parent="1" source="O0I8Ynf6DNQn3oAHetl9-48">
          <mxGeometry width="50" height="50" relative="1" as="geometry">
            <mxPoint x="100" y="384.5" as="sourcePoint" />
            <mxPoint x="380" y="499.5" as="targetPoint" />
          </mxGeometry>
        </mxCell>
        <mxCell id="O0I8Ynf6DNQn3oAHetl9-56" value="6. Ver InformaciÃ³n Local en el Kiosko" style="ellipse;whiteSpace=wrap;html=1;" vertex="1" parent="1">
          <mxGeometry x="210" y="514" width="140" height="70" as="geometry" />
        </mxCell>
        <mxCell id="O0I8Ynf6DNQn3oAHetl9-57" value="" style="endArrow=none;html=1;rounded=0;entryX=0;entryY=0.5;entryDx=0;entryDy=0;" edge="1" parent="1" target="O0I8Ynf6DNQn3oAHetl9-42">
          <mxGeometry width="50" height="50" relative="1" as="geometry">
            <mxPoint x="80" y="189.5" as="sourcePoint" />
            <mxPoint x="260" y="214.5" as="targetPoint" />
          </mxGeometry>
        </mxCell>
        <mxCell id="O0I8Ynf6DNQn3oAHetl9-58" value="3. Check-out Cliente" style="ellipse;whiteSpace=wrap;html=1;" vertex="1" parent="1">
          <mxGeometry x="210" y="269" width="140" height="70" as="geometry" />
        </mxCell>
        <mxCell id="O0I8Ynf6DNQn3oAHetl9-59" value="" style="endArrow=none;html=1;rounded=0;entryX=0;entryY=0.5;entryDx=0;entryDy=0;" edge="1" target="O0I8Ynf6DNQn3oAHetl9-58" parent="1">
          <mxGeometry width="50" height="50" relative="1" as="geometry">
            <mxPoint x="80" y="214.5" as="sourcePoint" />
            <mxPoint x="370" y="244.5" as="targetPoint" />
          </mxGeometry>
        </mxCell>
        <mxCell id="O0I8Ynf6DNQn3oAHetl9-60" value="AgenteReserva" style="shape=umlActor;verticalLabelPosition=bottom;verticalAlign=top;html=1;" vertex="1" parent="1">
          <mxGeometry x="410" y="180.5" width="30" height="60" as="geometry" />
        </mxCell>
        <mxCell id="O0I8Ynf6DNQn3oAHetl9-61" value="1.a. Crear Reserva" style="ellipse;whiteSpace=wrap;html=1;" vertex="1" parent="1">
          <mxGeometry x="545" y="102" width="140" height="70" as="geometry" />
        </mxCell>
        <mxCell id="O0I8Ynf6DNQn3oAHetl9-62" value="" style="endArrow=none;html=1;rounded=0;entryX=0;entryY=0.5;entryDx=0;entryDy=0;" edge="1" source="O0I8Ynf6DNQn3oAHetl9-60" target="O0I8Ynf6DNQn3oAHetl9-61" parent="1">
          <mxGeometry width="50" height="50" relative="1" as="geometry">
            <mxPoint x="615" y="302" as="sourcePoint" />
            <mxPoint x="665" y="252" as="targetPoint" />
          </mxGeometry>
        </mxCell>
        <mxCell id="O0I8Ynf6DNQn3oAHetl9-63" value="1.b. Actualizar Reserva" style="ellipse;whiteSpace=wrap;html=1;" vertex="1" parent="1">
          <mxGeometry x="545" y="212" width="140" height="70" as="geometry" />
        </mxCell>
        <mxCell id="O0I8Ynf6DNQn3oAHetl9-64" value="" style="endArrow=none;html=1;rounded=0;entryX=0;entryY=0.5;entryDx=0;entryDy=0;" edge="1" target="O0I8Ynf6DNQn3oAHetl9-63" parent="1">
          <mxGeometry width="50" height="50" relative="1" as="geometry">
            <mxPoint x="445" y="220.5" as="sourcePoint" />
            <mxPoint x="675" y="262" as="targetPoint" />
          </mxGeometry>
        </mxCell>
        <mxCell id="O0I8Ynf6DNQn3oAHetl9-65" value="1.c. Eliminar Reserva" style="ellipse;whiteSpace=wrap;html=1;" vertex="1" parent="1">
          <mxGeometry x="545" y="292" width="140" height="70" as="geometry" />
        </mxCell>
        <mxCell id="O0I8Ynf6DNQn3oAHetl9-66" value="" style="endArrow=none;html=1;rounded=0;entryX=0;entryY=0.5;entryDx=0;entryDy=0;exitX=1;exitY=1;exitDx=0;exitDy=0;exitPerimeter=0;" edge="1" target="O0I8Ynf6DNQn3oAHetl9-65" parent="1" source="O0I8Ynf6DNQn3oAHetl9-60">
          <mxGeometry width="50" height="50" relative="1" as="geometry">
            <mxPoint x="385" y="252" as="sourcePoint" />
            <mxPoint x="665" y="417" as="targetPoint" />
          </mxGeometry>
        </mxCell>
        <mxCell id="O0I8Ynf6DNQn3oAHetl9-67" value="Recepcionista" style="shape=umlActor;verticalLabelPosition=bottom;verticalAlign=top;html=1;" vertex="1" parent="1">
          <mxGeometry x="400" y="458" width="30" height="60" as="geometry" />
        </mxCell>
        <mxCell id="O0I8Ynf6DNQn3oAHetl9-72" value="" style="shape=flexArrow;endArrow=classic;html=1;rounded=0;width=0.5714285714285714;endSize=5.937142857142858;" edge="1" parent="1">
          <mxGeometry width="50" height="50" relative="1" as="geometry">
            <mxPoint x="420" y="440.5" as="sourcePoint" />
            <mxPoint x="422" y="270.5" as="targetPoint" />
          </mxGeometry>
        </mxCell>
        <mxCell id="O0I8Ynf6DNQn3oAHetl9-73" value="2. Check-in Cliente" style="ellipse;whiteSpace=wrap;html=1;" vertex="1" parent="1">
          <mxGeometry x="560" y="469.5" width="140" height="70" as="geometry" />
        </mxCell>
        <mxCell id="O0I8Ynf6DNQn3oAHetl9-74" value="" style="endArrow=none;html=1;rounded=0;entryX=0;entryY=0.5;entryDx=0;entryDy=0;" edge="1" target="O0I8Ynf6DNQn3oAHetl9-73" parent="1">
          <mxGeometry width="50" height="50" relative="1" as="geometry">
            <mxPoint x="465" y="500.5" as="sourcePoint" />
            <mxPoint x="670" y="534.5" as="targetPoint" />
          </mxGeometry>
        </mxCell>
        <mxCell id="O0I8Ynf6DNQn3oAHetl9-75" value="3. Check-out Cliente" style="ellipse;whiteSpace=wrap;html=1;" vertex="1" parent="1">
          <mxGeometry x="570" y="549.5" width="140" height="70" as="geometry" />
        </mxCell>
        <mxCell id="O0I8Ynf6DNQn3oAHetl9-76" value="" style="endArrow=none;html=1;rounded=0;entryX=0;entryY=0.5;entryDx=0;entryDy=0;" edge="1" target="O0I8Ynf6DNQn3oAHetl9-75" parent="1">
          <mxGeometry width="50" height="50" relative="1" as="geometry">
            <mxPoint x="475" y="510.5" as="sourcePoint" />
            <mxPoint x="680" y="544.5" as="targetPoint" />
          </mxGeometry>
        </mxCell>
        <mxCell id="O0I8Ynf6DNQn3oAHetl9-79" value="1.d. Buscar Reserva por Cliente" style="ellipse;whiteSpace=wrap;html=1;movable=1;resizable=1;rotatable=1;deletable=1;editable=1;locked=0;connectable=1;" vertex="1" parent="1">
          <mxGeometry x="846" y="382" width="128" height="70" as="geometry" />
        </mxCell>
        <mxCell id="O0I8Ynf6DNQn3oAHetl9-82" value="" style="shape=flexArrow;endArrow=classic;html=1;rounded=0;width=0.5714285714285714;endSize=5.937142857142858;" edge="1" parent="1">
          <mxGeometry width="50" height="50" relative="1" as="geometry">
            <mxPoint x="825" y="362" as="sourcePoint" />
            <mxPoint x="824.71" y="312" as="targetPoint" />
          </mxGeometry>
        </mxCell>
        <mxCell id="O0I8Ynf6DNQn3oAHetl9-83" value="" style="endArrow=none;html=1;rounded=0;" edge="1" parent="1">
          <mxGeometry width="50" height="50" relative="1" as="geometry">
            <mxPoint x="746" y="362" as="sourcePoint" />
            <mxPoint x="916" y="362" as="targetPoint" />
          </mxGeometry>
        </mxCell>
        <mxCell id="O0I8Ynf6DNQn3oAHetl9-84" value="" style="endArrow=none;html=1;rounded=0;exitX=0.463;exitY=0.023;exitDx=0;exitDy=0;exitPerimeter=0;" edge="1" parent="1" source="O0I8Ynf6DNQn3oAHetl9-80">
          <mxGeometry width="50" height="50" relative="1" as="geometry">
            <mxPoint x="586" y="322" as="sourcePoint" />
            <mxPoint x="746" y="362" as="targetPoint" />
          </mxGeometry>
        </mxCell>
        <mxCell id="O0I8Ynf6DNQn3oAHetl9-86" value="" style="endArrow=none;html=1;rounded=0;exitX=0.463;exitY=0.023;exitDx=0;exitDy=0;exitPerimeter=0;" edge="1" parent="1" target="O0I8Ynf6DNQn3oAHetl9-80">
          <mxGeometry width="50" height="50" relative="1" as="geometry">
            <mxPoint x="761" y="394" as="sourcePoint" />
            <mxPoint x="756" y="372" as="targetPoint" />
          </mxGeometry>
        </mxCell>
        <mxCell id="O0I8Ynf6DNQn3oAHetl9-80" value="1.d. Buscar Reserva por ID" style="ellipse;whiteSpace=wrap;html=1;movable=1;resizable=1;rotatable=1;deletable=1;editable=1;locked=0;connectable=1;" vertex="1" parent="1">
          <mxGeometry x="676" y="382" width="153" height="70" as="geometry" />
        </mxCell>
        <mxCell id="O0I8Ynf6DNQn3oAHetl9-87" value="" style="endArrow=none;html=1;rounded=0;exitX=0.55;exitY=0.002;exitDx=0;exitDy=0;exitPerimeter=0;" edge="1" parent="1" source="O0I8Ynf6DNQn3oAHetl9-79">
          <mxGeometry width="50" height="50" relative="1" as="geometry">
            <mxPoint x="586" y="322" as="sourcePoint" />
            <mxPoint x="916" y="362" as="targetPoint" />
          </mxGeometry>
        </mxCell>
        <mxCell id="O0I8Ynf6DNQn3oAHetl9-88" value="1.d. Buscar Reserva" style="ellipse;whiteSpace=wrap;html=1;movable=1;resizable=1;rotatable=1;deletable=1;editable=1;locked=0;connectable=1;" vertex="1" parent="1">
          <mxGeometry x="765" y="242" width="140" height="70" as="geometry" />
        </mxCell>
        <mxCell id="O0I8Ynf6DNQn3oAHetl9-89" value="&amp;lt;&amp;lt;include&amp;gt;&amp;gt;" style="endArrow=open;endSize=12;dashed=1;html=1;rounded=0;entryX=0;entryY=0.5;entryDx=0;entryDy=0;" edge="1" parent="1" target="O0I8Ynf6DNQn3oAHetl9-88">
          <mxGeometry width="160" relative="1" as="geometry">
            <mxPoint x="685" y="242" as="sourcePoint" />
            <mxPoint x="845" y="242" as="targetPoint" />
          </mxGeometry>
        </mxCell>
        <mxCell id="O0I8Ynf6DNQn3oAHetl9-90" value="&amp;lt;&amp;lt;include&amp;gt;&amp;gt;" style="endArrow=open;endSize=12;dashed=1;html=1;rounded=0;exitX=1;exitY=0.5;exitDx=0;exitDy=0;" edge="1" parent="1" source="O0I8Ynf6DNQn3oAHetl9-65">
          <mxGeometry width="160" relative="1" as="geometry">
            <mxPoint x="695" y="252" as="sourcePoint" />
            <mxPoint x="755" y="292" as="targetPoint" />
          </mxGeometry>
        </mxCell>
        <mxCell id="O0I8Ynf6DNQn3oAHetl9-91" value="Verificar CrÃ©dito" style="ellipse;whiteSpace=wrap;html=1;movable=1;resizable=1;rotatable=1;deletable=1;editable=1;locked=0;connectable=1;" vertex="1" parent="1">
          <mxGeometry x="775" y="469.5" width="140" height="70" as="geometry" />
        </mxCell>
        <mxCell id="O0I8Ynf6DNQn3oAHetl9-92" value="&amp;lt;&amp;lt;include&amp;gt;&amp;gt;" style="endArrow=open;endSize=12;dashed=1;html=1;rounded=0;entryX=0;entryY=0.5;entryDx=0;entryDy=0;exitX=1;exitY=0.5;exitDx=0;exitDy=0;" edge="1" target="O0I8Ynf6DNQn3oAHetl9-91" parent="1" source="O0I8Ynf6DNQn3oAHetl9-73">
          <mxGeometry width="160" relative="1" as="geometry">
            <mxPoint x="715" y="504.5" as="sourcePoint" />
            <mxPoint x="875" y="504.5" as="targetPoint" />
          </mxGeometry>
        </mxCell>
        <mxCell id="O0I8Ynf6DNQn3oAHetl9-93" value="&amp;lt;&amp;lt;include&amp;gt;&amp;gt;" style="endArrow=open;endSize=12;dashed=1;html=1;rounded=0;exitX=0.989;exitY=0.574;exitDx=0;exitDy=0;exitPerimeter=0;" edge="1" parent="1" source="O0I8Ynf6DNQn3oAHetl9-75" target="O0I8Ynf6DNQn3oAHetl9-94">
          <mxGeometry width="160" relative="1" as="geometry">
            <mxPoint x="715" y="589.5" as="sourcePoint" />
            <mxPoint x="795" y="609.5" as="targetPoint" />
          </mxGeometry>
        </mxCell>
        <mxCell id="O0I8Ynf6DNQn3oAHetl9-94" value="Verificar Pago" style="ellipse;whiteSpace=wrap;html=1;movable=1;resizable=1;rotatable=1;deletable=1;editable=1;locked=0;connectable=1;" vertex="1" parent="1">
          <mxGeometry x="785" y="564.5" width="140" height="70" as="geometry" />
        </mxCell>
        <mxCell id="O0I8Ynf6DNQn3oAHetl9-95" value="Â«actorÂ»&lt;br&gt;&lt;b&gt;Sistema de AutorizaciÃ³n de Tarjeta&lt;/b&gt;" style="html=1;whiteSpace=wrap;" vertex="1" parent="1">
          <mxGeometry x="1005" y="514.5" width="110" height="65" as="geometry" />
        </mxCell>
        <mxCell id="O0I8Ynf6DNQn3oAHetl9-96" value="" style="endArrow=none;html=1;rounded=0;entryX=0;entryY=0.25;entryDx=0;entryDy=0;" edge="1" parent="1" target="O0I8Ynf6DNQn3oAHetl9-95">
          <mxGeometry width="50" height="50" relative="1" as="geometry">
            <mxPoint x="915" y="504.21000000000004" as="sourcePoint" />
            <mxPoint x="1095" y="504.21000000000004" as="targetPoint" />
          </mxGeometry>
        </mxCell>
        <mxCell id="O0I8Ynf6DNQn3oAHetl9-97" value="" style="endArrow=none;html=1;rounded=0;entryX=0;entryY=0.75;entryDx=0;entryDy=0;exitX=1;exitY=0.5;exitDx=0;exitDy=0;" edge="1" parent="1" source="O0I8Ynf6DNQn3oAHetl9-94" target="O0I8Ynf6DNQn3oAHetl9-95">
          <mxGeometry width="50" height="50" relative="1" as="geometry">
            <mxPoint x="925" y="514.21" as="sourcePoint" />
            <mxPoint x="1015" y="540.5" as="targetPoint" />
          </mxGeometry>
        </mxCell>
        <mxCell id="O0I8Ynf6DNQn3oAHetl9-98" value="Buscar Cliente" style="ellipse;whiteSpace=wrap;html=1;movable=1;resizable=1;rotatable=1;deletable=1;editable=1;locked=0;connectable=1;" vertex="1" parent="1">
          <mxGeometry x="755" y="47" width="140" height="70" as="geometry" />
        </mxCell>
        <mxCell id="O0I8Ynf6DNQn3oAHetl9-99" value="&amp;lt;&amp;lt;extend&amp;gt;&amp;gt;" style="endArrow=open;endSize=12;dashed=1;html=1;rounded=0;exitX=0;exitY=0.5;exitDx=0;exitDy=0;entryX=1;entryY=0.5;entryDx=0;entryDy=0;" edge="1" target="O0I8Ynf6DNQn3oAHetl9-61" parent="1" source="O0I8Ynf6DNQn3oAHetl9-98">
          <mxGeometry width="160" relative="1" as="geometry">
            <mxPoint x="700" y="82" as="sourcePoint" />
            <mxPoint x="585" y="42" as="targetPoint" />
          </mxGeometry>
        </mxCell>
        <mxCell id="O0I8Ynf6DNQn3oAHetl9-100" value="&amp;lt;&amp;lt;extend&amp;gt;&amp;gt;" style="endArrow=open;endSize=12;dashed=1;html=1;rounded=0;entryX=1.025;entryY=0.604;entryDx=0;entryDy=0;entryPerimeter=0;exitX=0.019;exitY=0.655;exitDx=0;exitDy=0;exitPerimeter=0;" edge="1" target="O0I8Ynf6DNQn3oAHetl9-61" parent="1" source="O0I8Ynf6DNQn3oAHetl9-101">
          <mxGeometry x="-0.0029" width="160" relative="1" as="geometry">
            <mxPoint x="735" y="202" as="sourcePoint" />
            <mxPoint x="795" y="187" as="targetPoint" />
            <mxPoint as="offset" />
          </mxGeometry>
        </mxCell>
        <mxCell id="O0I8Ynf6DNQn3oAHetl9-101" value="Crear Cliiente" style="ellipse;whiteSpace=wrap;html=1;movable=1;resizable=1;rotatable=1;deletable=1;editable=1;locked=0;connectable=1;" vertex="1" parent="1">
          <mxGeometry x="765" y="142" width="140" height="70" as="geometry" />
        </mxCell>
        <mxCell id="O0I8Ynf6DNQn3oAHetl9-102" value="Bibliotecario" style="shape=umlActor;verticalLabelPosition=bottom;verticalAlign=top;html=1;outlineConnect=0;" vertex="1" parent="1">
          <mxGeometry x="225" y="975" width="30" height="60" as="geometry" />
        </mxCell>
        <mxCell id="O0I8Ynf6DNQn3oAHetl9-105" value="DevoluciÃ³n de libro" style="ellipse;whiteSpace=wrap;html=1;" vertex="1" parent="1">
          <mxGeometry x="315" y="970" width="140" height="70" as="geometry" />
        </mxCell>
        <mxCell id="O0I8Ynf6DNQn3oAHetl9-106" value="Aplicar multa" style="ellipse;whiteSpace=wrap;html=1;movable=1;resizable=1;rotatable=1;deletable=1;editable=1;locked=0;connectable=1;" vertex="1" parent="1">
          <mxGeometry x="535" y="970" width="140" height="70" as="geometry" />
        </mxCell>
        <mxCell id="O0I8Ynf6DNQn3oAHetl9-107" value="&amp;lt;&amp;lt;extend&amp;gt;&amp;gt;" style="endArrow=open;endSize=12;dashed=1;html=1;rounded=0;exitX=0;exitY=0.5;exitDx=0;exitDy=0;entryX=1;entryY=0.5;entryDx=0;entryDy=0;" edge="1" source="O0I8Ynf6DNQn3oAHetl9-106" target="O0I8Ynf6DNQn3oAHetl9-105" parent="1">
          <mxGeometry width="160" relative="1" as="geometry">
            <mxPoint x="505" y="950" as="sourcePoint" />
            <mxPoint x="390" y="910" as="targetPoint" />
          </mxGeometry>
        </mxCell>
        <mxCell id="O0I8Ynf6DNQn3oAHetl9-110" value="" style="endArrow=none;html=1;rounded=0;entryX=0;entryY=0.5;entryDx=0;entryDy=0;" edge="1" parent="1" target="O0I8Ynf6DNQn3oAHetl9-105">
          <mxGeometry width="50" height="50" relative="1" as="geometry">
            <mxPoint x="255" y="1003" as="sourcePoint" />
            <mxPoint x="425" y="925" as="targetPoint" />
          </mxGeometry>
        </mxCell>
        <mxCell id="O0I8Ynf6DNQn3oAHetl9-111" value="Sistema de Reserva de Hotel" style="shape=umlFrame;whiteSpace=wrap;html=1;pointerEvents=0;width=190;height=30;" vertex="1" parent="1">
          <mxGeometry x="515" y="20" width="470" height="640.5" as="geometry" />
        </mxCell>
        <mxCell id="O0I8Ynf6DNQn3oAHetl9-112" value="Sistema de Biblioteca" style="shape=umlFrame;whiteSpace=wrap;html=1;pointerEvents=0;width=190;height=30;" vertex="1" parent="1">
          <mxGeometry x="295" y="920" width="435" height="150" as="geometry" />
        </mxCell>
      </root>
    </mxGraphModel>
  </diagram>
</mxfile>
